<svg height="511pt" viewBox="-79 1 511 511.99899" width="511pt" xmlns="http://www.w3.org/2000/svg"><path d="m176.578125 0c-97.089844 0-176.078125 78.988281-176.078125 176.078125 0 54.183594 25.152344 105.472656 67.664062 138.75v112.578125c0 46.644531 37.949219 84.59375 84.59375 84.59375h47.640626c46.644531 0 84.59375-37.949219 84.59375-84.59375v-112.578125c42.511718-33.277344 67.664062-84.5625 67.664062-138.75 0-97.089844-78.988281-176.078125-176.078125-176.078125zm78.253906 412.328125h-156.511719v-33.324219h156.511719zm-54.433593 69.515625h-47.640626c-24.789062 0-45.757812-16.652344-52.3125-39.355469h152.265626c-6.554688 22.703125-27.523438 39.355469-52.3125 39.355469zm60.761718-186.847656c-3.96875 2.832031-6.324218 7.40625-6.324218 12.28125v41.570312h-156.515626v-41.570312c0-4.875-2.355468-9.449219-6.324218-12.28125-38.410156-27.371094-61.339844-71.828125-61.339844-118.917969 0-80.460937 65.460938-145.921875 145.921875-145.921875s145.921875 65.460938 145.921875 145.921875c0 47.089844-22.929688 91.546875-61.339844 118.917969zm0 0"/><path d="m239.875 118.0625-89.695312 89.691406-36.894532-36.890625c-5.886718-5.886719-15.433594-5.886719-21.324218 0-5.886719 5.890625-5.886719 15.4375 0 21.324219l47.558593 47.554688c2.941407 2.945312 6.800781 4.417968 10.660157 4.417968 3.859374 0 7.71875-1.472656 10.660156-4.417968l100.359375-100.355469c5.886719-5.886719 5.886719-15.433594 0-21.324219-5.890625-5.886719-15.4375-5.886719-21.324219 0zm0 0"/></svg>