<svg id="Capa_1" enable-background="new 0 0 512 512" height="512" viewBox="0 0 512 512" width="512" xmlns="http://www.w3.org/2000/svg"><g><path d="m497 301h-19.694c-7.275-36.002-27.229-68.065-56.306-90.256v-45.744c0-8.284-6.716-15-15-15-27.205 0-53.408 10.867-73.033 30.056-.63-.035-1.286-.056-1.967-.056h-120c-77.682 0-141.757 59.754-149.261 136h-16.739c-8.271 0-15-6.729-15-15v-30c0-8.284-6.716-15-15-15s-15 6.716-15 15v30c0 24.813 20.187 45 45 45h16.771c5.399 53.883 39.547 101.127 89.229 122.914v28.086c0 8.284 6.716 15 15 15h60c8.284 0 15-6.716 15-15v-15h60v15c0 8.284 6.716 15 15 15h60c8.284 0 15-6.716 15-15v-28.106c23.441-10.365 44.269-26.992 59.948-47.894h46.052c8.284 0 15-6.716 15-15v-90c0-8.284-6.716-15-15-15zm-15 90h-38.796c-5.004 0-9.678 2.495-12.462 6.652-14.572 21.755-35.797 38.428-59.766 46.949-5.98 2.126-9.976 7.786-9.976 14.134v23.265h-30v-15c0-8.284-6.716-15-15-15h-90c-8.284 0-15 6.716-15 15v15h-30v-23.265c0-6.347-3.995-12.008-9.976-14.134-47.865-17.015-80.024-62.668-80.024-113.601 0-66.72 53.832-121 120-121h120c.893 0 4.33.557 6.883.705 4.598.269 9.071-1.596 12.12-5.053 11.125-12.615 25.333-20.908 40.997-24.135v36.895c0 4.962 2.454 9.603 6.555 12.397 28.672 19.533 48.122 52.004 52.026 86.861.85 7.591 7.269 13.33 14.907 13.33h17.512z"/><path d="m376 271c-8.284 0-15 6.716-15 15v30c0 8.284 6.716 15 15 15s15-6.716 15-15v-30c0-8.284-6.716-15-15-15z"/><path d="m316 240h-120c-8.284 0-15 6.716-15 15s6.716 15 15 15h120c8.284 0 15-6.716 15-15s-6.716-15-15-15z"/><path d="m181 75c0 41.355 33.645 75 75 75s75-33.645 75-75-33.645-75-75-75-75 33.645-75 75zm120 0c0 24.813-20.187 45-45 45s-45-20.187-45-45 20.187-45 45-45 45 20.187 45 45z"/></g></svg>